<mxfile host="65bd71144e" pages="1">
    <diagram id="R2lEEEUBdFMjLlhIrx00" name="Page-1">
        <mxGraphModel dx="874" dy="667" grid="1" gridSize="10" guides="1" tooltips="1" connect="1" arrows="1" fold="1" page="1" pageScale="1" pageWidth="850" pageHeight="1100" math="0" shadow="0">
            <root>
                <mxCell id="0"/>
                <mxCell id="1" parent="0"/>
                <mxCell id="macZc3DusFHGocfkwywF-28" style="edgeStyle=orthogonalEdgeStyle;rounded=0;orthogonalLoop=1;jettySize=auto;html=1;exitX=0.5;exitY=0.5;exitDx=0;exitDy=0;exitPerimeter=0;entryX=0;entryY=0.5;entryDx=0;entryDy=0;endArrow=none;endFill=0;" parent="1" source="macZc3DusFHGocfkwywF-3" target="macZc3DusFHGocfkwywF-26" edge="1">
                    <mxGeometry relative="1" as="geometry">
                        <Array as="points">
                            <mxPoint x="350" y="790"/>
                            <mxPoint x="350" y="700"/>
                        </Array>
                    </mxGeometry>
                </mxCell>
                <mxCell id="macZc3DusFHGocfkwywF-30" style="edgeStyle=orthogonalEdgeStyle;rounded=0;orthogonalLoop=1;jettySize=auto;html=1;exitX=0.5;exitY=0.5;exitDx=0;exitDy=0;exitPerimeter=0;endArrow=none;endFill=0;entryX=0;entryY=0.5;entryDx=0;entryDy=0;" parent="1" source="macZc3DusFHGocfkwywF-3" target="macZc3DusFHGocfkwywF-29" edge="1">
                    <mxGeometry relative="1" as="geometry">
                        <mxPoint x="400" y="820" as="targetPoint"/>
                        <Array as="points">
                            <mxPoint x="405" y="790"/>
                            <mxPoint x="405" y="860"/>
                        </Array>
                    </mxGeometry>
                </mxCell>
                <mxCell id="macZc3DusFHGocfkwywF-3" value="Библиотекарь" style="shape=umlActor;verticalLabelPosition=bottom;verticalAlign=top;html=1;outlineConnect=0;" parent="1" vertex="1">
                    <mxGeometry x="300" y="760" width="30" height="60" as="geometry"/>
                </mxCell>
                <mxCell id="macZc3DusFHGocfkwywF-26" value="Оформление&lt;br&gt;абонемента" style="ellipse;whiteSpace=wrap;html=1;" parent="1" vertex="1">
                    <mxGeometry x="520" y="660" width="124.44" height="80" as="geometry"/>
                </mxCell>
                <mxCell id="macZc3DusFHGocfkwywF-29" value="Выдача заказа" style="ellipse;whiteSpace=wrap;html=1;" parent="1" vertex="1">
                    <mxGeometry x="530" y="820" width="124.44" height="80" as="geometry"/>
                </mxCell>
            </root>
        </mxGraphModel>
    </diagram>
</mxfile>